<svg xmlns="http://www.w3.org/2000/svg" version="1.1" width="800.7mm" height="186.7mm" viewBox = " 0 0 2837.128317 661.535977" >
<!-- Front--> 
<g transform="translate(22.5000185, 22.5000185) " > 
<polygon style="stroke:#000000; fill:none; stroke-width:0.90000074" points="0, 0 16.8307225, 0 16.8307225, 10.62993 33.661445, 10.62993 33.661445, 0 44.291375, 0 44.291375, 10.62993 54.921305000000004, 10.62993 54.921305000000004, 0 65.55123499999999, 0 65.55123499999999, 10.62993 76.181165, 10.62993 76.181165, 0 86.811095, 0 86.811095, 10.62993 97.441025, 10.62993 97.441025, 0 108.070955, 0 108.070955, 10.62993 118.700885, 10.62993 118.700885, 0 129.330815, 0 129.330815, 10.62993 139.960745, 10.62993 139.960745, 0 150.590675, 0 150.590675, 10.62993 161.22060499999998, 10.62993 161.22060499999998, 0 171.85053499999998, 0 171.85053499999998, 10.62993 182.48046499999998, 10.62993 182.48046499999998, 0 193.11039499999998, 0 193.11039499999998, 10.62993 203.74032499999998, 10.62993 203.74032499999998, 0 214.370255, 0 214.370255, 10.62993 225.000185, 10.62993 225.000185, 0 235.630115, 0 235.630115, 10.62993 246.260045, 10.62993 246.260045, 0 256.889975, 0 256.889975, 10.62993 267.519905, 10.62993 267.519905, 0 278.149835, 0 278.149835, 10.62993 288.779765, 10.62993 288.779765, 0 299.409695, 0 299.409695, 10.62993 310.039625, 10.62993 310.039625, 0 320.669555, 0 320.669555, 10.62993 331.299485, 10.62993 331.299485, 0 341.929415, 0 341.929415, 10.62993 352.559345, 10.62993 352.559345, 0 363.189275, 0 363.189275, 10.62993 373.819205, 10.62993 373.819205, 0 384.449135, 0 384.449135, 10.62993 395.079065, 10.62993 395.079065, 0 405.708995, 0 405.708995, 10.62993 416.338925, 10.62993 416.338925, 0 426.968855, 0 426.968855, 10.62993 437.598785, 10.62993 437.598785, 0 448.228715, 0 448.228715, 10.62993 458.858645, 10.62993 458.858645, 0 469.488575, 0 469.488575, 10.62993 480.118505, 10.62993 480.118505, 0 490.74843500000003, 0 490.74843500000003, 10.62993 501.37836500000003, 10.62993 501.37836500000003, 0 512.008295, 0 512.008295, 10.62993 522.638225, 10.62993 522.638225, 0 533.268155, 0 533.268155, 10.62993 543.8980849999999, 10.62993 543.8980849999999, 0 554.528015, 0 554.528015, 10.62993 565.1579449999999, 10.62993 565.1579449999999, 0 575.787875, 0 575.787875, 10.62993 586.4178049999999, 10.62993 586.4178049999999, 0 597.047735, 0 597.047735, 10.62993 607.6776649999999, 10.62993 607.6776649999999, 0 618.307595, 0 618.307595, 10.62993 628.9375249999999, 10.62993 628.9375249999999, 0 639.567455, 0 639.567455, 10.62993 650.1973849999999, 10.62993 650.1973849999999, 0 660.827315, 0 660.827315, 10.62993 671.457245, 10.62993 671.457245, 0 682.087175, 0 682.087175, 10.62993 692.717105, 10.62993 692.717105, 0 703.347035, 0 703.347035, 10.62993 713.976965, 10.62993 713.976965, 0 724.6068949999999, 0 724.6068949999999, 10.62993 735.236825, 10.62993 735.236825, 0 745.8667549999999, 0 745.8667549999999, 10.62993 756.496685, 10.62993 756.496685, 0 767.1266149999999, 0 767.1266149999999, 10.62993 777.756545, 10.62993 777.756545, 0 788.3864749999999, 0 788.3864749999999, 10.62993 799.016405, 10.62993 799.016405, 0 809.6463349999999, 0 809.6463349999999, 10.62993 820.276265, 10.62993 820.276265, 0 830.9061949999999, 0 830.9061949999999, 10.62993 841.536125, 10.62993 841.536125, 0 852.1660549999999, 0 852.1660549999999, 10.62993 862.795985, 10.62993 862.795985, 0 873.4259149999999, 0 873.4259149999999, 10.62993 884.055845, 10.62993 884.055845, 0 894.6857749999999, 0 894.6857749999999, 10.62993 905.315705, 10.62993 905.315705, 0 915.9456349999999, 0 915.9456349999999, 10.62993 926.575565, 10.62993 926.575565, 0 937.2054949999999, 0 937.2054949999999, 10.62993 947.835425, 10.62993 947.835425, 0 958.4653549999999, 0 958.4653549999999, 10.62993 969.095285, 10.62993 969.095285, 0 979.7252149999999, 0 979.7252149999999, 10.62993 990.355145, 10.62993 990.355145, 0 1000.9850749999999, 0 1000.9850749999999, 10.62993 1011.615005, 10.62993 1011.615005, 0 1022.2449349999999, 0 1022.2449349999999, 10.62993 1032.874865, 10.62993 1032.874865, 0 1043.504795, 0 1043.504795, 10.62993 1054.134725, 10.62993 1054.134725, 0 1064.764655, 0 1064.764655, 10.62993 1075.394585, 10.62993 1075.394585, 0 1086.0245149999998, 0 1086.0245149999998, 10.62993 1102.8552375, 10.62993 1102.8552375, 0 1119.68596, 0 1119.68596, 13.2874125 1109.05603, 13.2874125 1109.05603, 26.574825 1119.68596, 26.574825 1119.68596, 37.204755 1109.05603, 37.204755 1109.05603, 50.4921675 1119.68596, 50.4921675 1119.6859599999998, 63.779579999999996 1102.8552375, 63.779579999999996 1102.8552375, 53.149649999999994 1086.0245149999998, 53.149649999999994 1086.0245149999998, 63.779579999999996 1075.394585, 63.779579999999996 1075.394585, 53.149649999999994 1064.764655, 53.149649999999994 1064.764655, 63.779579999999996 1054.134725, 63.779579999999996 1054.134725, 53.149649999999994 1043.504795, 53.149649999999994 1043.504795, 63.779579999999996 1032.874865, 63.779579999999996 1032.874865, 53.149649999999994 1022.2449349999999, 53.149649999999994 1022.2449349999999, 63.779579999999996 1011.615005, 63.779579999999996 1011.615005, 53.149649999999994 1000.9850749999999, 53.149649999999994 1000.9850749999999, 63.779579999999996 990.355145, 63.779579999999996 990.355145, 53.149649999999994 979.7252149999999, 53.149649999999994 979.7252149999999, 63.779579999999996 969.095285, 63.779579999999996 969.095285, 53.149649999999994 958.4653549999999, 53.149649999999994 958.4653549999999, 63.779579999999996 947.835425, 63.779579999999996 947.835425, 53.149649999999994 937.2054949999999, 53.149649999999994 937.2054949999999, 63.779579999999996 926.575565, 63.779579999999996 926.575565, 53.149649999999994 915.9456349999999, 53.149649999999994 915.9456349999999, 63.779579999999996 905.315705, 63.779579999999996 905.315705, 53.149649999999994 894.6857749999999, 53.149649999999994 894.6857749999999, 63.779579999999996 884.055845, 63.779579999999996 884.055845, 53.149649999999994 873.4259149999999, 53.149649999999994 873.4259149999999, 63.779579999999996 862.795985, 63.779579999999996 862.795985, 53.149649999999994 852.1660549999999, 53.149649999999994 852.1660549999999, 63.779579999999996 841.536125, 63.779579999999996 841.536125, 53.149649999999994 830.9061949999999, 53.149649999999994 830.9061949999999, 63.779579999999996 820.276265, 63.779579999999996 820.276265, 53.149649999999994 809.6463349999999, 53.149649999999994 809.6463349999999, 63.779579999999996 799.016405, 63.779579999999996 799.016405, 53.149649999999994 788.3864749999999, 53.149649999999994 788.3864749999999, 63.779579999999996 777.756545, 63.779579999999996 777.756545, 53.149649999999994 767.1266149999999, 53.149649999999994 767.1266149999999, 63.779579999999996 756.496685, 63.779579999999996 756.496685, 53.149649999999994 745.8667549999999, 53.149649999999994 745.8667549999999, 63.779579999999996 735.236825, 63.779579999999996 735.236825, 53.149649999999994 724.6068949999999, 53.149649999999994 724.6068949999999, 63.779579999999996 713.976965, 63.779579999999996 713.976965, 53.149649999999994 703.347035, 53.149649999999994 703.347035, 63.779579999999996 692.717105, 63.779579999999996 692.717105, 53.149649999999994 682.087175, 53.149649999999994 682.087175, 63.779579999999996 671.457245, 63.779579999999996 671.457245, 53.149649999999994 660.827315, 53.149649999999994 660.827315, 63.779579999999996 650.1973849999999, 63.779579999999996 650.1973849999999, 53.149649999999994 639.567455, 53.149649999999994 639.567455, 63.779579999999996 628.9375249999999, 63.779579999999996 628.9375249999999, 53.149649999999994 618.307595, 53.149649999999994 618.307595, 63.779579999999996 607.6776649999999, 63.779579999999996 607.6776649999999, 53.149649999999994 597.047735, 53.149649999999994 597.047735, 63.779579999999996 586.4178049999999, 63.779579999999996 586.4178049999999, 53.149649999999994 575.787875, 53.149649999999994 575.787875, 63.779579999999996 565.1579449999999, 63.779579999999996 565.1579449999999, 53.149649999999994 554.528015, 53.149649999999994 554.528015, 63.779579999999996 543.8980849999999, 63.779579999999996 543.8980849999999, 53.149649999999994 533.268155, 53.149649999999994 533.268155, 63.779579999999996 522.638225, 63.779579999999996 522.638225, 53.149649999999994 512.008295, 53.149649999999994 512.008295, 63.779579999999996 501.37836500000003, 63.779579999999996 501.37836500000003, 53.149649999999994 490.74843500000003, 53.149649999999994 490.74843500000003, 63.779579999999996 480.118505, 63.779579999999996 480.118505, 53.149649999999994 469.488575, 53.149649999999994 469.488575, 63.779579999999996 458.858645, 63.779579999999996 458.858645, 53.149649999999994 448.228715, 53.149649999999994 448.228715, 63.779579999999996 437.598785, 63.779579999999996 437.598785, 53.149649999999994 426.968855, 53.149649999999994 426.968855, 63.779579999999996 416.338925, 63.779579999999996 416.338925, 53.149649999999994 405.708995, 53.149649999999994 405.708995, 63.779579999999996 395.079065, 63.779579999999996 395.079065, 53.149649999999994 384.449135, 53.149649999999994 384.449135, 63.779579999999996 373.819205, 63.779579999999996 373.819205, 53.149649999999994 363.189275, 53.149649999999994 363.189275, 63.779579999999996 352.559345, 63.779579999999996 352.559345, 53.149649999999994 341.929415, 53.149649999999994 341.929415, 63.779579999999996 331.299485, 63.779579999999996 331.299485, 53.149649999999994 320.669555, 53.149649999999994 320.669555, 63.779579999999996 310.039625, 63.779579999999996 310.039625, 53.149649999999994 299.409695, 53.149649999999994 299.409695, 63.779579999999996 288.779765, 63.779579999999996 288.779765, 53.149649999999994 278.149835, 53.149649999999994 278.149835, 63.779579999999996 267.519905, 63.779579999999996 267.519905, 53.149649999999994 256.889975, 53.149649999999994 256.889975, 63.779579999999996 246.260045, 63.779579999999996 246.260045, 53.149649999999994 235.630115, 53.149649999999994 235.630115, 63.779579999999996 225.000185, 63.779579999999996 225.000185, 53.149649999999994 214.370255, 53.149649999999994 214.370255, 63.779579999999996 203.74032499999998, 63.779579999999996 203.74032499999998, 53.149649999999994 193.11039499999998, 53.149649999999994 193.11039499999998, 63.779579999999996 182.48046499999998, 63.779579999999996 182.48046499999998, 53.149649999999994 171.85053499999998, 53.149649999999994 171.85053499999998, 63.779579999999996 161.22060499999998, 63.779579999999996 161.22060499999998, 53.149649999999994 150.590675, 53.149649999999994 150.590675, 63.779579999999996 139.960745, 63.779579999999996 139.960745, 53.149649999999994 129.330815, 53.149649999999994 129.330815, 63.779579999999996 118.700885, 63.779579999999996 118.700885, 53.149649999999994 108.070955, 53.149649999999994 108.070955, 63.779579999999996 97.441025, 63.779579999999996 97.441025, 53.149649999999994 86.811095, 53.149649999999994 86.811095, 63.779579999999996 76.181165, 63.779579999999996 76.181165, 53.149649999999994 65.55123499999999, 53.149649999999994 65.55123499999999, 63.779579999999996 54.921305000000004, 63.779579999999996 54.921305000000004, 53.149649999999994 44.291375, 53.149649999999994 44.291375, 63.779579999999996 33.661445, 63.779579999999996 33.661445, 53.149649999999994 16.8307225, 53.149649999999994 16.8307225, 63.779579999999996 0, 63.77958 0, 50.4921675 10.62993, 50.4921675 10.62993, 37.204755 0, 37.204755 0, 26.574825 10.62993, 26.574825 10.62993, 13.2874125 0, 13.2874125 "/> 
</g>
<!-- Back--> 
<g transform="translate(1142.1859785000001, 22.5000185) " > 
<polygon style="stroke:#000000; fill:none; stroke-width:0.90000074" points="0, 0 16.8307225, 0 16.8307225, 10.62993 33.661445, 10.62993 33.661445, 0 44.291375, 0 44.291375, 10.62993 54.921305000000004, 10.62993 54.921305000000004, 0 65.55123499999999, 0 65.55123499999999, 10.62993 76.181165, 10.62993 76.181165, 0 86.811095, 0 86.811095, 10.62993 97.441025, 10.62993 97.441025, 0 108.070955, 0 108.070955, 10.62993 118.700885, 10.62993 118.700885, 0 129.330815, 0 129.330815, 10.62993 139.960745, 10.62993 139.960745, 0 150.590675, 0 150.590675, 10.62993 161.22060499999998, 10.62993 161.22060499999998, 0 171.85053499999998, 0 171.85053499999998, 10.62993 182.48046499999998, 10.62993 182.48046499999998, 0 193.11039499999998, 0 193.11039499999998, 10.62993 203.74032499999998, 10.62993 203.74032499999998, 0 214.370255, 0 214.370255, 10.62993 225.000185, 10.62993 225.000185, 0 235.630115, 0 235.630115, 10.62993 246.260045, 10.62993 246.260045, 0 256.889975, 0 256.889975, 10.62993 267.519905, 10.62993 267.519905, 0 278.149835, 0 278.149835, 10.62993 288.779765, 10.62993 288.779765, 0 299.409695, 0 299.409695, 10.62993 310.039625, 10.62993 310.039625, 0 320.669555, 0 320.669555, 10.62993 331.299485, 10.62993 331.299485, 0 341.929415, 0 341.929415, 10.62993 352.559345, 10.62993 352.559345, 0 363.189275, 0 363.189275, 10.62993 373.819205, 10.62993 373.819205, 0 384.449135, 0 384.449135, 10.62993 395.079065, 10.62993 395.079065, 0 405.708995, 0 405.708995, 10.62993 416.338925, 10.62993 416.338925, 0 426.968855, 0 426.968855, 10.62993 437.598785, 10.62993 437.598785, 0 448.228715, 0 448.228715, 10.62993 458.858645, 10.62993 458.858645, 0 469.488575, 0 469.488575, 10.62993 480.118505, 10.62993 480.118505, 0 490.74843500000003, 0 490.74843500000003, 10.62993 501.37836500000003, 10.62993 501.37836500000003, 0 512.008295, 0 512.008295, 10.62993 522.638225, 10.62993 522.638225, 0 533.268155, 0 533.268155, 10.62993 543.8980849999999, 10.62993 543.8980849999999, 0 554.528015, 0 554.528015, 10.62993 565.1579449999999, 10.62993 565.1579449999999, 0 575.787875, 0 575.787875, 10.62993 586.4178049999999, 10.62993 586.4178049999999, 0 597.047735, 0 597.047735, 10.62993 607.6776649999999, 10.62993 607.6776649999999, 0 618.307595, 0 618.307595, 10.62993 628.9375249999999, 10.62993 628.9375249999999, 0 639.567455, 0 639.567455, 10.62993 650.1973849999999, 10.62993 650.1973849999999, 0 660.827315, 0 660.827315, 10.62993 671.457245, 10.62993 671.457245, 0 682.087175, 0 682.087175, 10.62993 692.717105, 10.62993 692.717105, 0 703.347035, 0 703.347035, 10.62993 713.976965, 10.62993 713.976965, 0 724.6068949999999, 0 724.6068949999999, 10.62993 735.236825, 10.62993 735.236825, 0 745.8667549999999, 0 745.8667549999999, 10.62993 756.496685, 10.62993 756.496685, 0 767.1266149999999, 0 767.1266149999999, 10.62993 777.756545, 10.62993 777.756545, 0 788.3864749999999, 0 788.3864749999999, 10.62993 799.016405, 10.62993 799.016405, 0 809.6463349999999, 0 809.6463349999999, 10.62993 820.276265, 10.62993 820.276265, 0 830.9061949999999, 0 830.9061949999999, 10.62993 841.536125, 10.62993 841.536125, 0 852.1660549999999, 0 852.1660549999999, 10.62993 862.795985, 10.62993 862.795985, 0 873.4259149999999, 0 873.4259149999999, 10.62993 884.055845, 10.62993 884.055845, 0 894.6857749999999, 0 894.6857749999999, 10.62993 905.315705, 10.62993 905.315705, 0 915.9456349999999, 0 915.9456349999999, 10.62993 926.575565, 10.62993 926.575565, 0 937.2054949999999, 0 937.2054949999999, 10.62993 947.835425, 10.62993 947.835425, 0 958.4653549999999, 0 958.4653549999999, 10.62993 969.095285, 10.62993 969.095285, 0 979.7252149999999, 0 979.7252149999999, 10.62993 990.355145, 10.62993 990.355145, 0 1000.9850749999999, 0 1000.9850749999999, 10.62993 1011.615005, 10.62993 1011.615005, 0 1022.2449349999999, 0 1022.2449349999999, 10.62993 1032.874865, 10.62993 1032.874865, 0 1043.504795, 0 1043.504795, 10.62993 1054.134725, 10.62993 1054.134725, 0 1064.764655, 0 1064.764655, 10.62993 1075.394585, 10.62993 1075.394585, 0 1086.0245149999998, 0 1086.0245149999998, 10.62993 1102.8552375, 10.62993 1102.8552375, 0 1119.68596, 0 1119.68596, 13.2874125 1109.05603, 13.2874125 1109.05603, 26.574825 1119.68596, 26.574825 1119.68596, 37.204755 1109.05603, 37.204755 1109.05603, 50.4921675 1119.68596, 50.4921675 1119.6859599999998, 63.779579999999996 1102.8552375, 63.779579999999996 1102.8552375, 53.149649999999994 1086.0245149999998, 53.149649999999994 1086.0245149999998, 63.779579999999996 1075.394585, 63.779579999999996 1075.394585, 53.149649999999994 1064.764655, 53.149649999999994 1064.764655, 63.779579999999996 1054.134725, 63.779579999999996 1054.134725, 53.149649999999994 1043.504795, 53.149649999999994 1043.504795, 63.779579999999996 1032.874865, 63.779579999999996 1032.874865, 53.149649999999994 1022.2449349999999, 53.149649999999994 1022.2449349999999, 63.779579999999996 1011.615005, 63.779579999999996 1011.615005, 53.149649999999994 1000.9850749999999, 53.149649999999994 1000.9850749999999, 63.779579999999996 990.355145, 63.779579999999996 990.355145, 53.149649999999994 979.7252149999999, 53.149649999999994 979.7252149999999, 63.779579999999996 969.095285, 63.779579999999996 969.095285, 53.149649999999994 958.4653549999999, 53.149649999999994 958.4653549999999, 63.779579999999996 947.835425, 63.779579999999996 947.835425, 53.149649999999994 937.2054949999999, 53.149649999999994 937.2054949999999, 63.779579999999996 926.575565, 63.779579999999996 926.575565, 53.149649999999994 915.9456349999999, 53.149649999999994 915.9456349999999, 63.779579999999996 905.315705, 63.779579999999996 905.315705, 53.149649999999994 894.6857749999999, 53.149649999999994 894.6857749999999, 63.779579999999996 884.055845, 63.779579999999996 884.055845, 53.149649999999994 873.4259149999999, 53.149649999999994 873.4259149999999, 63.779579999999996 862.795985, 63.779579999999996 862.795985, 53.149649999999994 852.1660549999999, 53.149649999999994 852.1660549999999, 63.779579999999996 841.536125, 63.779579999999996 841.536125, 53.149649999999994 830.9061949999999, 53.149649999999994 830.9061949999999, 63.779579999999996 820.276265, 63.779579999999996 820.276265, 53.149649999999994 809.6463349999999, 53.149649999999994 809.6463349999999, 63.779579999999996 799.016405, 63.779579999999996 799.016405, 53.149649999999994 788.3864749999999, 53.149649999999994 788.3864749999999, 63.779579999999996 777.756545, 63.779579999999996 777.756545, 53.149649999999994 767.1266149999999, 53.149649999999994 767.1266149999999, 63.779579999999996 756.496685, 63.779579999999996 756.496685, 53.149649999999994 745.8667549999999, 53.149649999999994 745.8667549999999, 63.779579999999996 735.236825, 63.779579999999996 735.236825, 53.149649999999994 724.6068949999999, 53.149649999999994 724.6068949999999, 63.779579999999996 713.976965, 63.779579999999996 713.976965, 53.149649999999994 703.347035, 53.149649999999994 703.347035, 63.779579999999996 692.717105, 63.779579999999996 692.717105, 53.149649999999994 682.087175, 53.149649999999994 682.087175, 63.779579999999996 671.457245, 63.779579999999996 671.457245, 53.149649999999994 660.827315, 53.149649999999994 660.827315, 63.779579999999996 650.1973849999999, 63.779579999999996 650.1973849999999, 53.149649999999994 639.567455, 53.149649999999994 639.567455, 63.779579999999996 628.9375249999999, 63.779579999999996 628.9375249999999, 53.149649999999994 618.307595, 53.149649999999994 618.307595, 63.779579999999996 607.6776649999999, 63.779579999999996 607.6776649999999, 53.149649999999994 597.047735, 53.149649999999994 597.047735, 63.779579999999996 586.4178049999999, 63.779579999999996 586.4178049999999, 53.149649999999994 575.787875, 53.149649999999994 575.787875, 63.779579999999996 565.1579449999999, 63.779579999999996 565.1579449999999, 53.149649999999994 554.528015, 53.149649999999994 554.528015, 63.779579999999996 543.8980849999999, 63.779579999999996 543.8980849999999, 53.149649999999994 533.268155, 53.149649999999994 533.268155, 63.779579999999996 522.638225, 63.779579999999996 522.638225, 53.149649999999994 512.008295, 53.149649999999994 512.008295, 63.779579999999996 501.37836500000003, 63.779579999999996 501.37836500000003, 53.149649999999994 490.74843500000003, 53.149649999999994 490.74843500000003, 63.779579999999996 480.118505, 63.779579999999996 480.118505, 53.149649999999994 469.488575, 53.149649999999994 469.488575, 63.779579999999996 458.858645, 63.779579999999996 458.858645, 53.149649999999994 448.228715, 53.149649999999994 448.228715, 63.779579999999996 437.598785, 63.779579999999996 437.598785, 53.149649999999994 426.968855, 53.149649999999994 426.968855, 63.779579999999996 416.338925, 63.779579999999996 416.338925, 53.149649999999994 405.708995, 53.149649999999994 405.708995, 63.779579999999996 395.079065, 63.779579999999996 395.079065, 53.149649999999994 384.449135, 53.149649999999994 384.449135, 63.779579999999996 373.819205, 63.779579999999996 373.819205, 53.149649999999994 363.189275, 53.149649999999994 363.189275, 63.779579999999996 352.559345, 63.779579999999996 352.559345, 53.149649999999994 341.929415, 53.149649999999994 341.929415, 63.779579999999996 331.299485, 63.779579999999996 331.299485, 53.149649999999994 320.669555, 53.149649999999994 320.669555, 63.779579999999996 310.039625, 63.779579999999996 310.039625, 53.149649999999994 299.409695, 53.149649999999994 299.409695, 63.779579999999996 288.779765, 63.779579999999996 288.779765, 53.149649999999994 278.149835, 53.149649999999994 278.149835, 63.779579999999996 267.519905, 63.779579999999996 267.519905, 53.149649999999994 256.889975, 53.149649999999994 256.889975, 63.779579999999996 246.260045, 63.779579999999996 246.260045, 53.149649999999994 235.630115, 53.149649999999994 235.630115, 63.779579999999996 225.000185, 63.779579999999996 225.000185, 53.149649999999994 214.370255, 53.149649999999994 214.370255, 63.779579999999996 203.74032499999998, 63.779579999999996 203.74032499999998, 53.149649999999994 193.11039499999998, 53.149649999999994 193.11039499999998, 63.779579999999996 182.48046499999998, 63.779579999999996 182.48046499999998, 53.149649999999994 171.85053499999998, 53.149649999999994 171.85053499999998, 63.779579999999996 161.22060499999998, 63.779579999999996 161.22060499999998, 53.149649999999994 150.590675, 53.149649999999994 150.590675, 63.779579999999996 139.960745, 63.779579999999996 139.960745, 53.149649999999994 129.330815, 53.149649999999994 129.330815, 63.779579999999996 118.700885, 63.779579999999996 118.700885, 53.149649999999994 108.070955, 53.149649999999994 108.070955, 63.779579999999996 97.441025, 63.779579999999996 97.441025, 53.149649999999994 86.811095, 53.149649999999994 86.811095, 63.779579999999996 76.181165, 63.779579999999996 76.181165, 53.149649999999994 65.55123499999999, 53.149649999999994 65.55123499999999, 63.779579999999996 54.921305000000004, 63.779579999999996 54.921305000000004, 53.149649999999994 44.291375, 53.149649999999994 44.291375, 63.779579999999996 33.661445, 63.779579999999996 33.661445, 53.149649999999994 16.8307225, 53.149649999999994 16.8307225, 63.779579999999996 0, 63.77958 0, 50.4921675 10.62993, 50.4921675 10.62993, 37.204755 0, 37.204755 0, 26.574825 10.62993, 26.574825 10.62993, 13.2874125 0, 13.2874125 "/> 
</g>
<!-- Left--> 
<g transform="translate(2261.8719385, 22.5000185) " > 
<polygon style="stroke:#000000; fill:none; stroke-width:0.90000074" points="10.62993, 0 13.2874125, 0 13.2874125, 10.62993 26.574825, 10.62993 26.574825, 0 37.204755, 0 37.204755, 10.62993 47.834685, 10.62993 47.834685, 0 58.464614999999995, 0 58.464614999999995, 10.62993 69.094545, 10.62993 69.094545, 0 79.724475, 0 79.724475, 10.62993 90.354405, 10.62993 90.354405, 0 100.984335, 0 100.984335, 10.62993 111.614265, 10.62993 111.614265, 0 122.244195, 0 122.244195, 10.62993 132.874125, 10.62993 132.874125, 0 143.504055, 0 143.504055, 10.62993 154.133985, 10.62993 154.133985, 0 164.763915, 0 164.763915, 10.62993 175.393845, 10.62993 175.393845, 0 186.023775, 0 186.023775, 10.62993 196.653705, 10.62993 196.653705, 0 207.283635, 0 207.283635, 10.62993 217.913565, 10.62993 217.913565, 0 228.543495, 0 228.543495, 10.62993 239.173425, 10.62993 239.173425, 0 249.803355, 0 249.803355, 10.62993 260.433285, 10.62993 260.433285, 0 271.063215, 0 271.063215, 10.62993 281.69314499999996, 10.62993 281.69314499999996, 0 292.32307499999996, 0 292.32307499999996, 10.62993 302.95300499999996, 10.62993 302.95300499999996, 0 313.58293499999996, 0 313.58293499999996, 10.62993 324.21286499999997, 10.62993 324.21286499999997, 0 334.84279499999997, 0 334.84279499999997, 10.62993 345.47272499999997, 10.62993 345.47272499999997, 0 356.10265499999997, 0 356.10265499999997, 10.62993 366.732585, 10.62993 366.732585, 0 377.362515, 0 377.362515, 10.62993 387.992445, 10.62993 387.992445, 0 398.622375, 0 398.622375, 10.62993 409.252305, 10.62993 409.252305, 0 419.882235, 0 419.882235, 10.62993 430.512165, 10.62993 430.512165, 0 441.142095, 0 441.142095, 10.62993 451.772025, 10.62993 451.772025, 0 462.401955, 0 462.401955, 10.62993 473.031885, 10.62993 473.031885, 0 483.661815, 0 483.661815, 10.62993 494.291745, 10.62993 494.291745, 0 504.921675, 0 504.921675, 10.62993 515.551605, 10.62993 515.551605, 0 526.181535, 0 526.181535, 10.62993 539.4689475, 10.62993 539.4689475, 0 542.12643, 0 542.12643, 13.2874125 552.75636, 13.2874125 552.75636, 26.574825 542.12643, 26.574825 542.12643, 37.204755 552.75636, 37.204755 552.75636, 50.4921675 542.12643, 50.4921675 542.12643, 63.779579999999996 539.4689475, 63.779579999999996 539.4689475, 53.149649999999994 526.181535, 53.149649999999994 526.181535, 63.779579999999996 515.551605, 63.779579999999996 515.551605, 53.149649999999994 504.921675, 53.149649999999994 504.921675, 63.779579999999996 494.291745, 63.779579999999996 494.291745, 53.149649999999994 483.661815, 53.149649999999994 483.661815, 63.779579999999996 473.031885, 63.779579999999996 473.031885, 53.149649999999994 462.401955, 53.149649999999994 462.401955, 63.779579999999996 451.772025, 63.779579999999996 451.772025, 53.149649999999994 441.142095, 53.149649999999994 441.142095, 63.779579999999996 430.512165, 63.779579999999996 430.512165, 53.149649999999994 419.882235, 53.149649999999994 419.882235, 63.779579999999996 409.252305, 63.779579999999996 409.252305, 53.149649999999994 398.622375, 53.149649999999994 398.622375, 63.779579999999996 387.992445, 63.779579999999996 387.992445, 53.149649999999994 377.362515, 53.149649999999994 377.362515, 63.779579999999996 366.732585, 63.779579999999996 366.732585, 53.149649999999994 356.10265499999997, 53.149649999999994 356.10265499999997, 63.779579999999996 345.47272499999997, 63.779579999999996 345.47272499999997, 53.149649999999994 334.84279499999997, 53.149649999999994 334.84279499999997, 63.779579999999996 324.21286499999997, 63.779579999999996 324.21286499999997, 53.149649999999994 313.58293499999996, 53.149649999999994 313.58293499999996, 63.779579999999996 302.95300499999996, 63.779579999999996 302.95300499999996, 53.149649999999994 292.32307499999996, 53.149649999999994 292.32307499999996, 63.779579999999996 281.69314499999996, 63.779579999999996 281.69314499999996, 53.149649999999994 271.063215, 53.149649999999994 271.063215, 63.779579999999996 260.433285, 63.779579999999996 260.433285, 53.149649999999994 249.803355, 53.149649999999994 249.803355, 63.779579999999996 239.173425, 63.779579999999996 239.173425, 53.149649999999994 228.543495, 53.149649999999994 228.543495, 63.779579999999996 217.913565, 63.779579999999996 217.913565, 53.149649999999994 207.283635, 53.149649999999994 207.283635, 63.779579999999996 196.653705, 63.779579999999996 196.653705, 53.149649999999994 186.023775, 53.149649999999994 186.023775, 63.779579999999996 175.393845, 63.779579999999996 175.393845, 53.149649999999994 164.763915, 53.149649999999994 164.763915, 63.779579999999996 154.133985, 63.779579999999996 154.133985, 53.149649999999994 143.504055, 53.149649999999994 143.504055, 63.779579999999996 132.874125, 63.779579999999996 132.874125, 53.149649999999994 122.244195, 53.149649999999994 122.244195, 63.779579999999996 111.614265, 63.779579999999996 111.614265, 53.149649999999994 100.984335, 53.149649999999994 100.984335, 63.779579999999996 90.354405, 63.779579999999996 90.354405, 53.149649999999994 79.724475, 53.149649999999994 79.724475, 63.779579999999996 69.094545, 63.779579999999996 69.094545, 53.149649999999994 58.464614999999995, 53.149649999999994 58.464614999999995, 63.779579999999996 47.834685, 63.779579999999996 47.834685, 53.149649999999994 37.204755, 53.149649999999994 37.204755, 63.779579999999996 26.574825, 63.779579999999996 26.574825, 53.149649999999994 13.2874125, 53.149649999999994 13.2874125, 63.779579999999996 10.62993, 63.77958 10.62993, 50.4921675 0, 50.4921675 0, 37.204755 10.62993, 37.204755 10.62993, 26.574825 0, 26.574825 0, 13.2874125 10.62993, 13.2874125 "/> 
</g>
<!-- Right--> 
<g transform="translate(2261.8719385, 86.2795985) " > 
<polygon style="stroke:#000000; fill:none; stroke-width:0.90000074" points="10.62993, 0 13.2874125, 0 13.2874125, 10.62993 26.574825, 10.62993 26.574825, 0 37.204755, 0 37.204755, 10.62993 47.834685, 10.62993 47.834685, 0 58.464614999999995, 0 58.464614999999995, 10.62993 69.094545, 10.62993 69.094545, 0 79.724475, 0 79.724475, 10.62993 90.354405, 10.62993 90.354405, 0 100.984335, 0 100.984335, 10.62993 111.614265, 10.62993 111.614265, 0 122.244195, 0 122.244195, 10.62993 132.874125, 10.62993 132.874125, 0 143.504055, 0 143.504055, 10.62993 154.133985, 10.62993 154.133985, 0 164.763915, 0 164.763915, 10.62993 175.393845, 10.62993 175.393845, 0 186.023775, 0 186.023775, 10.62993 196.653705, 10.62993 196.653705, 0 207.283635, 0 207.283635, 10.62993 217.913565, 10.62993 217.913565, 0 228.543495, 0 228.543495, 10.62993 239.173425, 10.62993 239.173425, 0 249.803355, 0 249.803355, 10.62993 260.433285, 10.62993 260.433285, 0 271.063215, 0 271.063215, 10.62993 281.69314499999996, 10.62993 281.69314499999996, 0 292.32307499999996, 0 292.32307499999996, 10.62993 302.95300499999996, 10.62993 302.95300499999996, 0 313.58293499999996, 0 313.58293499999996, 10.62993 324.21286499999997, 10.62993 324.21286499999997, 0 334.84279499999997, 0 334.84279499999997, 10.62993 345.47272499999997, 10.62993 345.47272499999997, 0 356.10265499999997, 0 356.10265499999997, 10.62993 366.732585, 10.62993 366.732585, 0 377.362515, 0 377.362515, 10.62993 387.992445, 10.62993 387.992445, 0 398.622375, 0 398.622375, 10.62993 409.252305, 10.62993 409.252305, 0 419.882235, 0 419.882235, 10.62993 430.512165, 10.62993 430.512165, 0 441.142095, 0 441.142095, 10.62993 451.772025, 10.62993 451.772025, 0 462.401955, 0 462.401955, 10.62993 473.031885, 10.62993 473.031885, 0 483.661815, 0 483.661815, 10.62993 494.291745, 10.62993 494.291745, 0 504.921675, 0 504.921675, 10.62993 515.551605, 10.62993 515.551605, 0 526.181535, 0 526.181535, 10.62993 539.4689475, 10.62993 539.4689475, 0 542.12643, 0 542.12643, 13.2874125 552.75636, 13.2874125 552.75636, 26.574825 542.12643, 26.574825 542.12643, 37.204755 552.75636, 37.204755 552.75636, 50.4921675 542.12643, 50.4921675 542.12643, 63.779579999999996 539.4689475, 63.779579999999996 539.4689475, 53.149649999999994 526.181535, 53.149649999999994 526.181535, 63.779579999999996 515.551605, 63.779579999999996 515.551605, 53.149649999999994 504.921675, 53.149649999999994 504.921675, 63.779579999999996 494.291745, 63.779579999999996 494.291745, 53.149649999999994 483.661815, 53.149649999999994 483.661815, 63.779579999999996 473.031885, 63.779579999999996 473.031885, 53.149649999999994 462.401955, 53.149649999999994 462.401955, 63.779579999999996 451.772025, 63.779579999999996 451.772025, 53.149649999999994 441.142095, 53.149649999999994 441.142095, 63.779579999999996 430.512165, 63.779579999999996 430.512165, 53.149649999999994 419.882235, 53.149649999999994 419.882235, 63.779579999999996 409.252305, 63.779579999999996 409.252305, 53.149649999999994 398.622375, 53.149649999999994 398.622375, 63.779579999999996 387.992445, 63.779579999999996 387.992445, 53.149649999999994 377.362515, 53.149649999999994 377.362515, 63.779579999999996 366.732585, 63.779579999999996 366.732585, 53.149649999999994 356.10265499999997, 53.149649999999994 356.10265499999997, 63.779579999999996 345.47272499999997, 63.779579999999996 345.47272499999997, 53.149649999999994 334.84279499999997, 53.149649999999994 334.84279499999997, 63.779579999999996 324.21286499999997, 63.779579999999996 324.21286499999997, 53.149649999999994 313.58293499999996, 53.149649999999994 313.58293499999996, 63.779579999999996 302.95300499999996, 63.779579999999996 302.95300499999996, 53.149649999999994 292.32307499999996, 53.149649999999994 292.32307499999996, 63.779579999999996 281.69314499999996, 63.779579999999996 281.69314499999996, 53.149649999999994 271.063215, 53.149649999999994 271.063215, 63.779579999999996 260.433285, 63.779579999999996 260.433285, 53.149649999999994 249.803355, 53.149649999999994 249.803355, 63.779579999999996 239.173425, 63.779579999999996 239.173425, 53.149649999999994 228.543495, 53.149649999999994 228.543495, 63.779579999999996 217.913565, 63.779579999999996 217.913565, 53.149649999999994 207.283635, 53.149649999999994 207.283635, 63.779579999999996 196.653705, 63.779579999999996 196.653705, 53.149649999999994 186.023775, 53.149649999999994 186.023775, 63.779579999999996 175.393845, 63.779579999999996 175.393845, 53.149649999999994 164.763915, 53.149649999999994 164.763915, 63.779579999999996 154.133985, 63.779579999999996 154.133985, 53.149649999999994 143.504055, 53.149649999999994 143.504055, 63.779579999999996 132.874125, 63.779579999999996 132.874125, 53.149649999999994 122.244195, 53.149649999999994 122.244195, 63.779579999999996 111.614265, 63.779579999999996 111.614265, 53.149649999999994 100.984335, 53.149649999999994 100.984335, 63.779579999999996 90.354405, 63.779579999999996 90.354405, 53.149649999999994 79.724475, 53.149649999999994 79.724475, 63.779579999999996 69.094545, 63.779579999999996 69.094545, 53.149649999999994 58.464614999999995, 53.149649999999994 58.464614999999995, 63.779579999999996 47.834685, 63.779579999999996 47.834685, 53.149649999999994 37.204755, 53.149649999999994 37.204755, 63.779579999999996 26.574825, 63.779579999999996 26.574825, 53.149649999999994 13.2874125, 53.149649999999994 13.2874125, 63.779579999999996 10.62993, 63.77958 10.62993, 50.4921675 0, 50.4921675 0, 37.204755 10.62993, 37.204755 10.62993, 26.574825 0, 26.574825 0, 13.2874125 10.62993, 13.2874125 "/> 
</g>
<!-- Top--> 
<g transform="translate(22.5000185, 86.2795985) " > 
<polygon style="stroke:#000000; fill:none; stroke-width:0.90000074" points="10.62993, 10.62993 16.8307225, 10.62993 16.8307225, 0 33.661445, 0 33.661445, 10.62993 44.291375, 10.62993 44.291375, 0 54.921305000000004, 0 54.921305000000004, 10.62993 65.55123499999999, 10.62993 65.55123499999999, 0 76.181165, 0 76.181165, 10.62993 86.811095, 10.62993 86.811095, 0 97.441025, 0 97.441025, 10.62993 108.070955, 10.62993 108.070955, 0 118.700885, 0 118.700885, 10.62993 129.330815, 10.62993 129.330815, 0 139.960745, 0 139.960745, 10.62993 150.590675, 10.62993 150.590675, 0 161.22060499999998, 0 161.22060499999998, 10.62993 171.85053499999998, 10.62993 171.85053499999998, 0 182.48046499999998, 0 182.48046499999998, 10.62993 193.11039499999998, 10.62993 193.11039499999998, 0 203.74032499999998, 0 203.74032499999998, 10.62993 214.370255, 10.62993 214.370255, 0 225.000185, 0 225.000185, 10.62993 235.630115, 10.62993 235.630115, 0 246.260045, 0 246.260045, 10.62993 256.889975, 10.62993 256.889975, 0 267.519905, 0 267.519905, 10.62993 278.149835, 10.62993 278.149835, 0 288.779765, 0 288.779765, 10.62993 299.409695, 10.62993 299.409695, 0 310.039625, 0 310.039625, 10.62993 320.669555, 10.62993 320.669555, 0 331.299485, 0 331.299485, 10.62993 341.929415, 10.62993 341.929415, 0 352.559345, 0 352.559345, 10.62993 363.189275, 10.62993 363.189275, 0 373.819205, 0 373.819205, 10.62993 384.449135, 10.62993 384.449135, 0 395.079065, 0 395.079065, 10.62993 405.708995, 10.62993 405.708995, 0 416.338925, 0 416.338925, 10.62993 426.968855, 10.62993 426.968855, 0 437.598785, 0 437.598785, 10.62993 448.228715, 10.62993 448.228715, 0 458.858645, 0 458.858645, 10.62993 469.488575, 10.62993 469.488575, 0 480.118505, 0 480.118505, 10.62993 490.74843500000003, 10.62993 490.74843500000003, 0 501.37836500000003, 0 501.37836500000003, 10.62993 512.008295, 10.62993 512.008295, 0 522.638225, 0 522.638225, 10.62993 533.268155, 10.62993 533.268155, 0 543.8980849999999, 0 543.8980849999999, 10.62993 554.528015, 10.62993 554.528015, 0 565.1579449999999, 0 565.1579449999999, 10.62993 575.787875, 10.62993 575.787875, 0 586.4178049999999, 0 586.4178049999999, 10.62993 597.047735, 10.62993 597.047735, 0 607.6776649999999, 0 607.6776649999999, 10.62993 618.307595, 10.62993 618.307595, 0 628.9375249999999, 0 628.9375249999999, 10.62993 639.567455, 10.62993 639.567455, 0 650.1973849999999, 0 650.1973849999999, 10.62993 660.827315, 10.62993 660.827315, 0 671.457245, 0 671.457245, 10.62993 682.087175, 10.62993 682.087175, 0 692.717105, 0 692.717105, 10.62993 703.347035, 10.62993 703.347035, 0 713.976965, 0 713.976965, 10.62993 724.6068949999999, 10.62993 724.6068949999999, 0 735.236825, 0 735.236825, 10.62993 745.8667549999999, 10.62993 745.8667549999999, 0 756.496685, 0 756.496685, 10.62993 767.1266149999999, 10.62993 767.1266149999999, 0 777.756545, 0 777.756545, 10.62993 788.3864749999999, 10.62993 788.3864749999999, 0 799.016405, 0 799.016405, 10.62993 809.6463349999999, 10.62993 809.6463349999999, 0 820.276265, 0 820.276265, 10.62993 830.9061949999999, 10.62993 830.9061949999999, 0 841.536125, 0 841.536125, 10.62993 852.1660549999999, 10.62993 852.1660549999999, 0 862.795985, 0 862.795985, 10.62993 873.4259149999999, 10.62993 873.4259149999999, 0 884.055845, 0 884.055845, 10.62993 894.6857749999999, 10.62993 894.6857749999999, 0 905.315705, 0 905.315705, 10.62993 915.9456349999999, 10.62993 915.9456349999999, 0 926.575565, 0 926.575565, 10.62993 937.2054949999999, 10.62993 937.2054949999999, 0 947.835425, 0 947.835425, 10.62993 958.4653549999999, 10.62993 958.4653549999999, 0 969.095285, 0 969.095285, 10.62993 979.7252149999999, 10.62993 979.7252149999999, 0 990.355145, 0 990.355145, 10.62993 1000.9850749999999, 10.62993 1000.9850749999999, 0 1011.615005, 0 1011.615005, 10.62993 1022.2449349999999, 10.62993 1022.2449349999999, 0 1032.874865, 0 1032.874865, 10.62993 1043.504795, 10.62993 1043.504795, 0 1054.134725, 0 1054.134725, 10.62993 1064.764655, 10.62993 1064.764655, 0 1075.394585, 0 1075.394585, 10.62993 1086.0245149999998, 10.62993 1086.0245149999998, 0 1102.8552375, 0 1102.8552375, 10.62993 1109.05603, 10.62993 1109.05603, 13.2874125 1119.68596, 13.2874125 1119.68596, 26.574825 1109.05603, 26.574825 1109.05603, 37.204755 1119.68596, 37.204755 1119.68596, 47.834685 1109.05603, 47.834685 1109.05603, 58.464614999999995 1119.68596, 58.464614999999995 1119.68596, 69.094545 1109.05603, 69.094545 1109.05603, 79.724475 1119.68596, 79.724475 1119.68596, 90.354405 1109.05603, 90.354405 1109.05603, 100.984335 1119.68596, 100.984335 1119.68596, 111.614265 1109.05603, 111.614265 1109.05603, 122.244195 1119.68596, 122.244195 1119.68596, 132.874125 1109.05603, 132.874125 1109.05603, 143.504055 1119.68596, 143.504055 1119.68596, 154.133985 1109.05603, 154.133985 1109.05603, 164.763915 1119.68596, 164.763915 1119.68596, 175.393845 1109.05603, 175.393845 1109.05603, 186.023775 1119.68596, 186.023775 1119.68596, 196.653705 1109.05603, 196.653705 1109.05603, 207.283635 1119.68596, 207.283635 1119.68596, 217.913565 1109.05603, 217.913565 1109.05603, 228.543495 1119.68596, 228.543495 1119.68596, 239.173425 1109.05603, 239.173425 1109.05603, 249.803355 1119.68596, 249.803355 1119.68596, 260.433285 1109.05603, 260.433285 1109.05603, 271.063215 1119.68596, 271.063215 1119.68596, 281.69314499999996 1109.05603, 281.69314499999996 1109.05603, 292.32307499999996 1119.68596, 292.32307499999996 1119.68596, 302.95300499999996 1109.05603, 302.95300499999996 1109.05603, 313.58293499999996 1119.68596, 313.58293499999996 1119.68596, 324.21286499999997 1109.05603, 324.21286499999997 1109.05603, 334.84279499999997 1119.68596, 334.84279499999997 1119.68596, 345.47272499999997 1109.05603, 345.47272499999997 1109.05603, 356.10265499999997 1119.68596, 356.10265499999997 1119.68596, 366.732585 1109.05603, 366.732585 1109.05603, 377.362515 1119.68596, 377.362515 1119.68596, 387.992445 1109.05603, 387.992445 1109.05603, 398.622375 1119.68596, 398.622375 1119.68596, 409.252305 1109.05603, 409.252305 1109.05603, 419.882235 1119.68596, 419.882235 1119.68596, 430.512165 1109.05603, 430.512165 1109.05603, 441.142095 1119.68596, 441.142095 1119.68596, 451.772025 1109.05603, 451.772025 1109.05603, 462.401955 1119.68596, 462.401955 1119.68596, 473.031885 1109.05603, 473.031885 1109.05603, 483.661815 1119.68596, 483.661815 1119.68596, 494.291745 1109.05603, 494.291745 1109.05603, 504.921675 1119.68596, 504.921675 1119.68596, 515.551605 1109.05603, 515.551605 1109.05603, 526.181535 1119.68596, 526.181535 1119.68596, 539.4689475 1109.05603, 539.4689475 1109.0560299999997, 542.12643 1102.8552375, 542.12643 1102.8552375, 552.75636 1086.0245149999998, 552.75636 1086.0245149999998, 542.12643 1075.394585, 542.12643 1075.394585, 552.75636 1064.764655, 552.75636 1064.764655, 542.12643 1054.134725, 542.12643 1054.134725, 552.75636 1043.504795, 552.75636 1043.504795, 542.12643 1032.874865, 542.12643 1032.874865, 552.75636 1022.2449349999999, 552.75636 1022.2449349999999, 542.12643 1011.615005, 542.12643 1011.615005, 552.75636 1000.9850749999999, 552.75636 1000.9850749999999, 542.12643 990.355145, 542.12643 990.355145, 552.75636 979.7252149999999, 552.75636 979.7252149999999, 542.12643 969.095285, 542.12643 969.095285, 552.75636 958.4653549999999, 552.75636 958.4653549999999, 542.12643 947.835425, 542.12643 947.835425, 552.75636 937.2054949999999, 552.75636 937.2054949999999, 542.12643 926.575565, 542.12643 926.575565, 552.75636 915.9456349999999, 552.75636 915.9456349999999, 542.12643 905.315705, 542.12643 905.315705, 552.75636 894.6857749999999, 552.75636 894.6857749999999, 542.12643 884.055845, 542.12643 884.055845, 552.75636 873.4259149999999, 552.75636 873.4259149999999, 542.12643 862.795985, 542.12643 862.795985, 552.75636 852.1660549999999, 552.75636 852.1660549999999, 542.12643 841.536125, 542.12643 841.536125, 552.75636 830.9061949999999, 552.75636 830.9061949999999, 542.12643 820.276265, 542.12643 820.276265, 552.75636 809.6463349999999, 552.75636 809.6463349999999, 542.12643 799.016405, 542.12643 799.016405, 552.75636 788.3864749999999, 552.75636 788.3864749999999, 542.12643 777.756545, 542.12643 777.756545, 552.75636 767.1266149999999, 552.75636 767.1266149999999, 542.12643 756.496685, 542.12643 756.496685, 552.75636 745.8667549999999, 552.75636 745.8667549999999, 542.12643 735.236825, 542.12643 735.236825, 552.75636 724.6068949999999, 552.75636 724.6068949999999, 542.12643 713.976965, 542.12643 713.976965, 552.75636 703.347035, 552.75636 703.347035, 542.12643 692.717105, 542.12643 692.717105, 552.75636 682.087175, 552.75636 682.087175, 542.12643 671.457245, 542.12643 671.457245, 552.75636 660.827315, 552.75636 660.827315, 542.12643 650.1973849999999, 542.12643 650.1973849999999, 552.75636 639.567455, 552.75636 639.567455, 542.12643 628.9375249999999, 542.12643 628.9375249999999, 552.75636 618.307595, 552.75636 618.307595, 542.12643 607.6776649999999, 542.12643 607.6776649999999, 552.75636 597.047735, 552.75636 597.047735, 542.12643 586.4178049999999, 542.12643 586.4178049999999, 552.75636 575.787875, 552.75636 575.787875, 542.12643 565.1579449999999, 542.12643 565.1579449999999, 552.75636 554.528015, 552.75636 554.528015, 542.12643 543.8980849999999, 542.12643 543.8980849999999, 552.75636 533.268155, 552.75636 533.268155, 542.12643 522.638225, 542.12643 522.638225, 552.75636 512.008295, 552.75636 512.008295, 542.12643 501.37836500000003, 542.12643 501.37836500000003, 552.75636 490.74843500000003, 552.75636 490.74843500000003, 542.12643 480.118505, 542.12643 480.118505, 552.75636 469.488575, 552.75636 469.488575, 542.12643 458.858645, 542.12643 458.858645, 552.75636 448.228715, 552.75636 448.228715, 542.12643 437.598785, 542.12643 437.598785, 552.75636 426.968855, 552.75636 426.968855, 542.12643 416.338925, 542.12643 416.338925, 552.75636 405.708995, 552.75636 405.708995, 542.12643 395.079065, 542.12643 395.079065, 552.75636 384.449135, 552.75636 384.449135, 542.12643 373.819205, 542.12643 373.819205, 552.75636 363.189275, 552.75636 363.189275, 542.12643 352.559345, 542.12643 352.559345, 552.75636 341.929415, 552.75636 341.929415, 542.12643 331.299485, 542.12643 331.299485, 552.75636 320.669555, 552.75636 320.669555, 542.12643 310.039625, 542.12643 310.039625, 552.75636 299.409695, 552.75636 299.409695, 542.12643 288.779765, 542.12643 288.779765, 552.75636 278.149835, 552.75636 278.149835, 542.12643 267.519905, 542.12643 267.519905, 552.75636 256.889975, 552.75636 256.889975, 542.12643 246.260045, 542.12643 246.260045, 552.75636 235.630115, 552.75636 235.630115, 542.12643 225.000185, 542.12643 225.000185, 552.75636 214.370255, 552.75636 214.370255, 542.12643 203.74032499999998, 542.12643 203.74032499999998, 552.75636 193.11039499999998, 552.75636 193.11039499999998, 542.12643 182.48046499999998, 542.12643 182.48046499999998, 552.75636 171.85053499999998, 552.75636 171.85053499999998, 542.12643 161.22060499999998, 542.12643 161.22060499999998, 552.75636 150.590675, 552.75636 150.590675, 542.12643 139.960745, 542.12643 139.960745, 552.75636 129.330815, 552.75636 129.330815, 542.12643 118.700885, 542.12643 118.700885, 552.75636 108.070955, 552.75636 108.070955, 542.12643 97.441025, 542.12643 97.441025, 552.75636 86.811095, 552.75636 86.811095, 542.12643 76.181165, 542.12643 76.181165, 552.75636 65.55123499999999, 552.75636 65.55123499999999, 542.12643 54.921305000000004, 542.12643 54.921305000000004, 552.75636 44.291375, 552.75636 44.291375, 542.12643 33.661445, 542.12643 33.661445, 552.75636 16.8307225, 552.75636 16.8307225, 542.12643 10.62993, 542.12643 10.62993, 539.4689475 0, 539.4689475 0, 526.181535 10.62993, 526.181535 10.62993, 515.551605 0, 515.551605 0, 504.921675 10.62993, 504.921675 10.62993, 494.291745 0, 494.291745 0, 483.661815 10.62993, 483.661815 10.62993, 473.031885 0, 473.031885 0, 462.401955 10.62993, 462.401955 10.62993, 451.772025 0, 451.772025 0, 441.142095 10.62993, 441.142095 10.62993, 430.512165 0, 430.512165 0, 419.882235 10.62993, 419.882235 10.62993, 409.252305 0, 409.252305 0, 398.622375 10.62993, 398.622375 10.62993, 387.992445 0, 387.992445 0, 377.362515 10.62993, 377.362515 10.62993, 366.732585 0, 366.732585 0, 356.10265499999997 10.62993, 356.10265499999997 10.62993, 345.47272499999997 0, 345.47272499999997 0, 334.84279499999997 10.62993, 334.84279499999997 10.62993, 324.21286499999997 0, 324.21286499999997 0, 313.58293499999996 10.62993, 313.58293499999996 10.62993, 302.95300499999996 0, 302.95300499999996 0, 292.32307499999996 10.62993, 292.32307499999996 10.62993, 281.69314499999996 0, 281.69314499999996 0, 271.063215 10.62993, 271.063215 10.62993, 260.433285 0, 260.433285 0, 249.803355 10.62993, 249.803355 10.62993, 239.173425 0, 239.173425 0, 228.543495 10.62993, 228.543495 10.62993, 217.913565 0, 217.913565 0, 207.283635 10.62993, 207.283635 10.62993, 196.653705 0, 196.653705 0, 186.023775 10.62993, 186.023775 10.62993, 175.393845 0, 175.393845 0, 164.763915 10.62993, 164.763915 10.62993, 154.133985 0, 154.133985 0, 143.504055 10.62993, 143.504055 10.62993, 132.874125 0, 132.874125 0, 122.244195 10.62993, 122.244195 10.62993, 111.614265 0, 111.614265 0, 100.984335 10.62993, 100.984335 10.62993, 90.354405 0, 90.354405 0, 79.724475 10.62993, 79.724475 10.62993, 69.094545 0, 69.094545 0, 58.464614999999995 10.62993, 58.464614999999995 10.62993, 47.834685 0, 47.834685 0, 37.204755 10.62993, 37.204755 10.62993, 26.574825 0, 26.574825 0, 13.2874125 10.62993, 13.2874125 "/> 
</g>
<!-- Bottom--> 
<g transform="translate(1142.1859785000001, 86.2795985) " > 
<polygon style="stroke:#000000; fill:none; stroke-width:0.90000074" points="10.62993, 10.62993 16.8307225, 10.62993 16.8307225, 0 33.661445, 0 33.661445, 10.62993 44.291375, 10.62993 44.291375, 0 54.921305000000004, 0 54.921305000000004, 10.62993 65.55123499999999, 10.62993 65.55123499999999, 0 76.181165, 0 76.181165, 10.62993 86.811095, 10.62993 86.811095, 0 97.441025, 0 97.441025, 10.62993 108.070955, 10.62993 108.070955, 0 118.700885, 0 118.700885, 10.62993 129.330815, 10.62993 129.330815, 0 139.960745, 0 139.960745, 10.62993 150.590675, 10.62993 150.590675, 0 161.22060499999998, 0 161.22060499999998, 10.62993 171.85053499999998, 10.62993 171.85053499999998, 0 182.48046499999998, 0 182.48046499999998, 10.62993 193.11039499999998, 10.62993 193.11039499999998, 0 203.74032499999998, 0 203.74032499999998, 10.62993 214.370255, 10.62993 214.370255, 0 225.000185, 0 225.000185, 10.62993 235.630115, 10.62993 235.630115, 0 246.260045, 0 246.260045, 10.62993 256.889975, 10.62993 256.889975, 0 267.519905, 0 267.519905, 10.62993 278.149835, 10.62993 278.149835, 0 288.779765, 0 288.779765, 10.62993 299.409695, 10.62993 299.409695, 0 310.039625, 0 310.039625, 10.62993 320.669555, 10.62993 320.669555, 0 331.299485, 0 331.299485, 10.62993 341.929415, 10.62993 341.929415, 0 352.559345, 0 352.559345, 10.62993 363.189275, 10.62993 363.189275, 0 373.819205, 0 373.819205, 10.62993 384.449135, 10.62993 384.449135, 0 395.079065, 0 395.079065, 10.62993 405.708995, 10.62993 405.708995, 0 416.338925, 0 416.338925, 10.62993 426.968855, 10.62993 426.968855, 0 437.598785, 0 437.598785, 10.62993 448.228715, 10.62993 448.228715, 0 458.858645, 0 458.858645, 10.62993 469.488575, 10.62993 469.488575, 0 480.118505, 0 480.118505, 10.62993 490.74843500000003, 10.62993 490.74843500000003, 0 501.37836500000003, 0 501.37836500000003, 10.62993 512.008295, 10.62993 512.008295, 0 522.638225, 0 522.638225, 10.62993 533.268155, 10.62993 533.268155, 0 543.8980849999999, 0 543.8980849999999, 10.62993 554.528015, 10.62993 554.528015, 0 565.1579449999999, 0 565.1579449999999, 10.62993 575.787875, 10.62993 575.787875, 0 586.4178049999999, 0 586.4178049999999, 10.62993 597.047735, 10.62993 597.047735, 0 607.6776649999999, 0 607.6776649999999, 10.62993 618.307595, 10.62993 618.307595, 0 628.9375249999999, 0 628.9375249999999, 10.62993 639.567455, 10.62993 639.567455, 0 650.1973849999999, 0 650.1973849999999, 10.62993 660.827315, 10.62993 660.827315, 0 671.457245, 0 671.457245, 10.62993 682.087175, 10.62993 682.087175, 0 692.717105, 0 692.717105, 10.62993 703.347035, 10.62993 703.347035, 0 713.976965, 0 713.976965, 10.62993 724.6068949999999, 10.62993 724.6068949999999, 0 735.236825, 0 735.236825, 10.62993 745.8667549999999, 10.62993 745.8667549999999, 0 756.496685, 0 756.496685, 10.62993 767.1266149999999, 10.62993 767.1266149999999, 0 777.756545, 0 777.756545, 10.62993 788.3864749999999, 10.62993 788.3864749999999, 0 799.016405, 0 799.016405, 10.62993 809.6463349999999, 10.62993 809.6463349999999, 0 820.276265, 0 820.276265, 10.62993 830.9061949999999, 10.62993 830.9061949999999, 0 841.536125, 0 841.536125, 10.62993 852.1660549999999, 10.62993 852.1660549999999, 0 862.795985, 0 862.795985, 10.62993 873.4259149999999, 10.62993 873.4259149999999, 0 884.055845, 0 884.055845, 10.62993 894.6857749999999, 10.62993 894.6857749999999, 0 905.315705, 0 905.315705, 10.62993 915.9456349999999, 10.62993 915.9456349999999, 0 926.575565, 0 926.575565, 10.62993 937.2054949999999, 10.62993 937.2054949999999, 0 947.835425, 0 947.835425, 10.62993 958.4653549999999, 10.62993 958.4653549999999, 0 969.095285, 0 969.095285, 10.62993 979.7252149999999, 10.62993 979.7252149999999, 0 990.355145, 0 990.355145, 10.62993 1000.9850749999999, 10.62993 1000.9850749999999, 0 1011.615005, 0 1011.615005, 10.62993 1022.2449349999999, 10.62993 1022.2449349999999, 0 1032.874865, 0 1032.874865, 10.62993 1043.504795, 10.62993 1043.504795, 0 1054.134725, 0 1054.134725, 10.62993 1064.764655, 10.62993 1064.764655, 0 1075.394585, 0 1075.394585, 10.62993 1086.0245149999998, 10.62993 1086.0245149999998, 0 1102.8552375, 0 1102.8552375, 10.62993 1109.05603, 10.62993 1109.05603, 13.2874125 1119.68596, 13.2874125 1119.68596, 26.574825 1109.05603, 26.574825 1109.05603, 37.204755 1119.68596, 37.204755 1119.68596, 47.834685 1109.05603, 47.834685 1109.05603, 58.464614999999995 1119.68596, 58.464614999999995 1119.68596, 69.094545 1109.05603, 69.094545 1109.05603, 79.724475 1119.68596, 79.724475 1119.68596, 90.354405 1109.05603, 90.354405 1109.05603, 100.984335 1119.68596, 100.984335 1119.68596, 111.614265 1109.05603, 111.614265 1109.05603, 122.244195 1119.68596, 122.244195 1119.68596, 132.874125 1109.05603, 132.874125 1109.05603, 143.504055 1119.68596, 143.504055 1119.68596, 154.133985 1109.05603, 154.133985 1109.05603, 164.763915 1119.68596, 164.763915 1119.68596, 175.393845 1109.05603, 175.393845 1109.05603, 186.023775 1119.68596, 186.023775 1119.68596, 196.653705 1109.05603, 196.653705 1109.05603, 207.283635 1119.68596, 207.283635 1119.68596, 217.913565 1109.05603, 217.913565 1109.05603, 228.543495 1119.68596, 228.543495 1119.68596, 239.173425 1109.05603, 239.173425 1109.05603, 249.803355 1119.68596, 249.803355 1119.68596, 260.433285 1109.05603, 260.433285 1109.05603, 271.063215 1119.68596, 271.063215 1119.68596, 281.69314499999996 1109.05603, 281.69314499999996 1109.05603, 292.32307499999996 1119.68596, 292.32307499999996 1119.68596, 302.95300499999996 1109.05603, 302.95300499999996 1109.05603, 313.58293499999996 1119.68596, 313.58293499999996 1119.68596, 324.21286499999997 1109.05603, 324.21286499999997 1109.05603, 334.84279499999997 1119.68596, 334.84279499999997 1119.68596, 345.47272499999997 1109.05603, 345.47272499999997 1109.05603, 356.10265499999997 1119.68596, 356.10265499999997 1119.68596, 366.732585 1109.05603, 366.732585 1109.05603, 377.362515 1119.68596, 377.362515 1119.68596, 387.992445 1109.05603, 387.992445 1109.05603, 398.622375 1119.68596, 398.622375 1119.68596, 409.252305 1109.05603, 409.252305 1109.05603, 419.882235 1119.68596, 419.882235 1119.68596, 430.512165 1109.05603, 430.512165 1109.05603, 441.142095 1119.68596, 441.142095 1119.68596, 451.772025 1109.05603, 451.772025 1109.05603, 462.401955 1119.68596, 462.401955 1119.68596, 473.031885 1109.05603, 473.031885 1109.05603, 483.661815 1119.68596, 483.661815 1119.68596, 494.291745 1109.05603, 494.291745 1109.05603, 504.921675 1119.68596, 504.921675 1119.68596, 515.551605 1109.05603, 515.551605 1109.05603, 526.181535 1119.68596, 526.181535 1119.68596, 539.4689475 1109.05603, 539.4689475 1109.0560299999997, 542.12643 1102.8552375, 542.12643 1102.8552375, 552.75636 1086.0245149999998, 552.75636 1086.0245149999998, 542.12643 1075.394585, 542.12643 1075.394585, 552.75636 1064.764655, 552.75636 1064.764655, 542.12643 1054.134725, 542.12643 1054.134725, 552.75636 1043.504795, 552.75636 1043.504795, 542.12643 1032.874865, 542.12643 1032.874865, 552.75636 1022.2449349999999, 552.75636 1022.2449349999999, 542.12643 1011.615005, 542.12643 1011.615005, 552.75636 1000.9850749999999, 552.75636 1000.9850749999999, 542.12643 990.355145, 542.12643 990.355145, 552.75636 979.7252149999999, 552.75636 979.7252149999999, 542.12643 969.095285, 542.12643 969.095285, 552.75636 958.4653549999999, 552.75636 958.4653549999999, 542.12643 947.835425, 542.12643 947.835425, 552.75636 937.2054949999999, 552.75636 937.2054949999999, 542.12643 926.575565, 542.12643 926.575565, 552.75636 915.9456349999999, 552.75636 915.9456349999999, 542.12643 905.315705, 542.12643 905.315705, 552.75636 894.6857749999999, 552.75636 894.6857749999999, 542.12643 884.055845, 542.12643 884.055845, 552.75636 873.4259149999999, 552.75636 873.4259149999999, 542.12643 862.795985, 542.12643 862.795985, 552.75636 852.1660549999999, 552.75636 852.1660549999999, 542.12643 841.536125, 542.12643 841.536125, 552.75636 830.9061949999999, 552.75636 830.9061949999999, 542.12643 820.276265, 542.12643 820.276265, 552.75636 809.6463349999999, 552.75636 809.6463349999999, 542.12643 799.016405, 542.12643 799.016405, 552.75636 788.3864749999999, 552.75636 788.3864749999999, 542.12643 777.756545, 542.12643 777.756545, 552.75636 767.1266149999999, 552.75636 767.1266149999999, 542.12643 756.496685, 542.12643 756.496685, 552.75636 745.8667549999999, 552.75636 745.8667549999999, 542.12643 735.236825, 542.12643 735.236825, 552.75636 724.6068949999999, 552.75636 724.6068949999999, 542.12643 713.976965, 542.12643 713.976965, 552.75636 703.347035, 552.75636 703.347035, 542.12643 692.717105, 542.12643 692.717105, 552.75636 682.087175, 552.75636 682.087175, 542.12643 671.457245, 542.12643 671.457245, 552.75636 660.827315, 552.75636 660.827315, 542.12643 650.1973849999999, 542.12643 650.1973849999999, 552.75636 639.567455, 552.75636 639.567455, 542.12643 628.9375249999999, 542.12643 628.9375249999999, 552.75636 618.307595, 552.75636 618.307595, 542.12643 607.6776649999999, 542.12643 607.6776649999999, 552.75636 597.047735, 552.75636 597.047735, 542.12643 586.4178049999999, 542.12643 586.4178049999999, 552.75636 575.787875, 552.75636 575.787875, 542.12643 565.1579449999999, 542.12643 565.1579449999999, 552.75636 554.528015, 552.75636 554.528015, 542.12643 543.8980849999999, 542.12643 543.8980849999999, 552.75636 533.268155, 552.75636 533.268155, 542.12643 522.638225, 542.12643 522.638225, 552.75636 512.008295, 552.75636 512.008295, 542.12643 501.37836500000003, 542.12643 501.37836500000003, 552.75636 490.74843500000003, 552.75636 490.74843500000003, 542.12643 480.118505, 542.12643 480.118505, 552.75636 469.488575, 552.75636 469.488575, 542.12643 458.858645, 542.12643 458.858645, 552.75636 448.228715, 552.75636 448.228715, 542.12643 437.598785, 542.12643 437.598785, 552.75636 426.968855, 552.75636 426.968855, 542.12643 416.338925, 542.12643 416.338925, 552.75636 405.708995, 552.75636 405.708995, 542.12643 395.079065, 542.12643 395.079065, 552.75636 384.449135, 552.75636 384.449135, 542.12643 373.819205, 542.12643 373.819205, 552.75636 363.189275, 552.75636 363.189275, 542.12643 352.559345, 542.12643 352.559345, 552.75636 341.929415, 552.75636 341.929415, 542.12643 331.299485, 542.12643 331.299485, 552.75636 320.669555, 552.75636 320.669555, 542.12643 310.039625, 542.12643 310.039625, 552.75636 299.409695, 552.75636 299.409695, 542.12643 288.779765, 542.12643 288.779765, 552.75636 278.149835, 552.75636 278.149835, 542.12643 267.519905, 542.12643 267.519905, 552.75636 256.889975, 552.75636 256.889975, 542.12643 246.260045, 542.12643 246.260045, 552.75636 235.630115, 552.75636 235.630115, 542.12643 225.000185, 542.12643 225.000185, 552.75636 214.370255, 552.75636 214.370255, 542.12643 203.74032499999998, 542.12643 203.74032499999998, 552.75636 193.11039499999998, 552.75636 193.11039499999998, 542.12643 182.48046499999998, 542.12643 182.48046499999998, 552.75636 171.85053499999998, 552.75636 171.85053499999998, 542.12643 161.22060499999998, 542.12643 161.22060499999998, 552.75636 150.590675, 552.75636 150.590675, 542.12643 139.960745, 542.12643 139.960745, 552.75636 129.330815, 552.75636 129.330815, 542.12643 118.700885, 542.12643 118.700885, 552.75636 108.070955, 552.75636 108.070955, 542.12643 97.441025, 542.12643 97.441025, 552.75636 86.811095, 552.75636 86.811095, 542.12643 76.181165, 542.12643 76.181165, 552.75636 65.55123499999999, 552.75636 65.55123499999999, 542.12643 54.921305000000004, 542.12643 54.921305000000004, 552.75636 44.291375, 552.75636 44.291375, 542.12643 33.661445, 542.12643 33.661445, 552.75636 16.8307225, 552.75636 16.8307225, 542.12643 10.62993, 542.12643 10.62993, 539.4689475 0, 539.4689475 0, 526.181535 10.62993, 526.181535 10.62993, 515.551605 0, 515.551605 0, 504.921675 10.62993, 504.921675 10.62993, 494.291745 0, 494.291745 0, 483.661815 10.62993, 483.661815 10.62993, 473.031885 0, 473.031885 0, 462.401955 10.62993, 462.401955 10.62993, 451.772025 0, 451.772025 0, 441.142095 10.62993, 441.142095 10.62993, 430.512165 0, 430.512165 0, 419.882235 10.62993, 419.882235 10.62993, 409.252305 0, 409.252305 0, 398.622375 10.62993, 398.622375 10.62993, 387.992445 0, 387.992445 0, 377.362515 10.62993, 377.362515 10.62993, 366.732585 0, 366.732585 0, 356.10265499999997 10.62993, 356.10265499999997 10.62993, 345.47272499999997 0, 345.47272499999997 0, 334.84279499999997 10.62993, 334.84279499999997 10.62993, 324.21286499999997 0, 324.21286499999997 0, 313.58293499999996 10.62993, 313.58293499999996 10.62993, 302.95300499999996 0, 302.95300499999996 0, 292.32307499999996 10.62993, 292.32307499999996 10.62993, 281.69314499999996 0, 281.69314499999996 0, 271.063215 10.62993, 271.063215 10.62993, 260.433285 0, 260.433285 0, 249.803355 10.62993, 249.803355 10.62993, 239.173425 0, 239.173425 0, 228.543495 10.62993, 228.543495 10.62993, 217.913565 0, 217.913565 0, 207.283635 10.62993, 207.283635 10.62993, 196.653705 0, 196.653705 0, 186.023775 10.62993, 186.023775 10.62993, 175.393845 0, 175.393845 0, 164.763915 10.62993, 164.763915 10.62993, 154.133985 0, 154.133985 0, 143.504055 10.62993, 143.504055 10.62993, 132.874125 0, 132.874125 0, 122.244195 10.62993, 122.244195 10.62993, 111.614265 0, 111.614265 0, 100.984335 10.62993, 100.984335 10.62993, 90.354405 0, 90.354405 0, 79.724475 10.62993, 79.724475 10.62993, 69.094545 0, 69.094545 0, 58.464614999999995 10.62993, 58.464614999999995 10.62993, 47.834685 0, 47.834685 0, 37.204755 10.62993, 37.204755 10.62993, 26.574825 0, 26.574825 0, 13.2874125 10.62993, 13.2874125 "/> 
</g></svg>
